<svg id="Layer_1" data-name="Layer 1" xmlns="http://www.w3.org/2000/svg" viewBox="0 0 300.64 293.35"><defs><style>.cls-1{opacity:0.9;}.cls-2{fill:none;stroke:#000;}</style></defs><g class="cls-1"><path class="cls-2" d="M309.23,344.59a30.79,30.79,0,0,1-30.79,30.79h-147a30.78,30.78,0,0,1-30.79-30.79V309.07a30.78,30.78,0,0,1,30.79-30.79H165a43.72,43.72,0,0,0,43.72-43.73v-36.1a30.8,30.8,0,0,1,30.79-30.8h38.91a30.8,30.8,0,0,1,30.79,30.8V344.59Z" transform="translate(-100.16 -167.15)"/></g><g class="cls-1"><path class="cls-2" d="M191.73,283.06a30.8,30.8,0,0,1,30.79-30.79h147a30.79,30.79,0,0,1,30.79,30.79v35.53a30.79,30.79,0,0,1-30.79,30.79H335.94a43.71,43.71,0,0,0-43.72,43.72v36.11A30.8,30.8,0,0,1,261.43,460H222.52a30.8,30.8,0,0,1-30.79-30.79V283.06Z" transform="translate(-100.16 -167.15)"/></g><path d="M202,292.13h5.44l1.71,13.62c.22,1.77.29,3,.35,4.31h.16c.06-1.3.13-2.54.35-4.31l1.71-13.62h5.41L213,314.61h-6.74Z" transform="translate(-100.16 -167.15)"/><path d="M218.6,314.61V292.13h5.29v22.48Z" transform="translate(-100.16 -167.15)"/><path d="M233.35,305.69h-1.26v8.92H226.8V292.13h6.58c5.13,0,7.13,2.38,7.13,6.24v.92c0,2.56-.95,4.21-2.53,5.1l3,10.22h-5.51Zm-.35-3.23c1.56,0,2.06-.89,2.06-2.82v-1.58c0-1.78-.54-2.41-2.06-2.41h-.91v6.81Z" transform="translate(-100.16 -167.15)"/><path d="M254.5,296.57h-4.21v18H245v-18h-4.21v-4.44H254.5Z" transform="translate(-100.16 -167.15)"/><path d="M260.9,292.13v16.53c0,1.33.57,2.06,1.62,2.06s1.64-.73,1.64-2.06V292.13h5.26v16.72c0,3.93-2.47,6.3-6.9,6.3s-6.91-2.34-6.91-6.3V292.13Z" transform="translate(-100.16 -167.15)"/><path d="M279.84,310h-3.71l-.63,4.62h-5.29l4.28-22.48h7l4.31,22.48h-5.32Zm-.51-3.73-.92-6.75c-.13-1-.25-1.83-.38-3.07h-.09c-.1,1.24-.26,2.06-.38,3.07l-.92,6.75Z" transform="translate(-100.16 -167.15)"/><path d="M287.56,292.13h5.29v17.93h5.41v4.55h-10.7Z" transform="translate(-100.16 -167.15)"/><path d="M203.46,319.52h5.29v17.92h5.41V342h-10.7Z" transform="translate(-100.16 -167.15)"/><path d="M225.28,337.38h-3.71l-.63,4.62h-5.29l4.28-22.48h7L231.23,342h-5.32Zm-.51-3.74-.92-6.74c-.12-1-.25-1.84-.38-3.07h-.09c-.1,1.23-.25,2.05-.38,3.07l-.92,6.74Z" transform="translate(-100.16 -167.15)"/><path d="M246.71,335.19v.67c0,3.73-2.15,6.14-6.55,6.14H233V319.52h6.93c4.43,0,6.52,2.31,6.52,5.67v.73a4.09,4.09,0,0,1-2.94,4.18C245.58,330.82,246.71,332.53,246.71,335.19ZM238.29,323v5.89h.92c1.39,0,1.84-.95,1.84-2.85v-.72c0-1.56-.48-2.32-1.84-2.32Zm3,11.88c0-1.93-.57-2.79-1.87-2.79h-1.11v6.37h1.11c1.33,0,1.87-.92,1.87-2.79Z" transform="translate(-100.16 -167.15)"/></svg>